<svg width="32" height="32" viewBox="0 0 32 32" fill="none" xmlns="http://www.w3.org/2000/svg">
<path d="M27.325 4.6521C25.8513 3.17145 24.0963 1.99759 22.1623 1.19891C20.2283 0.40023 18.154 -0.00728855 16.0603 9.8661e-05C7.28679 9.8661e-05 0.136615 7.1161 0.128579 15.8521C0.128579 18.6501 0.863887 21.3721 2.25213 23.7821L0 32.0001L8.446 29.7961C10.7825 31.0619 13.4002 31.7254 16.0603 31.7261H16.0683C24.8438 31.7261 31.992 24.6101 32 15.8661C32.002 13.7822 31.5898 11.7185 30.7871 9.79386C29.9844 7.86924 28.8091 6.12176 27.325 4.6521ZM16.0603 29.0421C13.6876 29.0429 11.3585 28.4073 9.31793 27.2021L8.83576 26.9141L3.82521 28.2221L5.16323 23.3561L4.84982 22.8541C3.52347 20.7547 2.82199 18.3242 2.82672 15.8441C2.82672 8.5921 8.76745 2.6761 16.0683 2.6761C17.8076 2.67299 19.5303 3.01265 21.1372 3.67548C22.744 4.33832 24.2031 5.31122 25.4304 6.5381C26.662 7.7602 27.6384 9.21295 28.3032 10.8126C28.968 12.4122 29.3081 14.127 29.3039 15.8581C29.2958 23.1361 23.3551 29.0421 16.0603 29.0421ZM23.3229 19.1741C22.9272 18.9761 20.9724 18.0181 20.6047 17.8821C20.2391 17.7521 19.9719 17.6841 19.7107 18.0801C19.4435 18.4741 18.6801 19.3721 18.451 19.6301C18.222 19.8961 17.9849 19.9261 17.5871 19.7301C17.1914 19.5301 15.9076 19.1141 14.3887 17.7601C13.2034 16.7101 12.4098 15.4101 12.1728 15.0161C11.9437 14.6201 12.1507 14.4081 12.3496 14.2101C12.5244 14.0341 12.7453 13.7461 12.9442 13.5181C13.1451 13.2901 13.2114 13.1221 13.342 12.8581C13.4726 12.5901 13.4103 12.3621 13.3119 12.1641C13.2114 11.9661 12.4179 10.0121 12.0824 9.2241C11.7609 8.4461 11.4334 8.5541 11.1883 8.5441C10.9593 8.5301 10.6921 8.5301 10.4249 8.5301C10.2231 8.53509 10.0246 8.58155 9.84167 8.66656C9.65878 8.75157 9.49552 8.8733 9.36213 9.0241C8.99648 9.4201 7.97388 10.3781 7.97388 12.3321C7.97388 14.2861 9.4003 16.1641 9.6012 16.4301C9.79809 16.6961 12.4018 20.6941 16.3978 22.4141C17.342 22.8241 18.0854 23.0661 18.666 23.2501C19.6203 23.5541 20.4822 23.5081 21.1693 23.4101C21.9327 23.2941 23.5218 22.4501 23.8574 21.5241C24.1868 20.5961 24.1868 19.8041 24.0864 19.6381C23.9879 19.4701 23.7207 19.3721 23.3229 19.1741Z" fill="#FBA81F"/>
</svg>
