<svg width="405" height="525" viewBox="0 0 405 525" fill="none" xmlns="http://www.w3.org/2000/svg">
<path d="M389.149 9.65741C417.94 34.9588 403.109 116.97 379.552 171.935C355.123 226.028 323.715 253.947 328.077 308.912C332.439 364.749 373.445 448.505 360.358 489.511C348.144 529.644 280.964 527.027 218.147 520.92C156.202 514.812 97.7471 504.343 59.3588 472.062C20.9705 439.781 1.7764 385.688 0.0314725 335.958C-0.840989 286.228 16.6082 241.732 29.6952 194.619C43.6545 147.506 53.2516 97.776 82.9153 72.4746C113.451 48.0457 163.182 47.1732 225.127 31.4689C287.071 14.8922 360.358 -15.644 389.149 9.65741Z" fill="url(#paint0_linear_62_597)"/>
<defs>
<linearGradient id="paint0_linear_62_597" x1="0" y1="524.425" x2="507.389" y2="132.581" gradientUnits="userSpaceOnUse">
<stop stop-color="#F87537"/>
<stop offset="1" stop-color="#FBA81F"/>
</linearGradient>
</defs>
</svg>
