<svg width="16" height="14" viewBox="0 0 16 14" fill="" xmlns="http://www.w3.org/2000/svg">
<path d="M2 0C1.04822 0 0.25173 0.664837 0.0495854 1.55544L8 6.41403L15.9504 1.55544C15.7483 0.664837 14.9518 0 14 0H2Z" fill=""/>
<path d="M0 9.80059V2.69708L5.80319 6.24348L0 9.80059Z" fill=""/>
<path d="M6.7614 6.82905L0.191871 10.8559C0.512604 11.5323 1.20168 12 2 12H8.25606C8.09023 11.5308 8 11.026 8 10.5C8 9.11692 8.62396 7.87957 9.60575 7.0541L9.2386 6.82905L8 7.58597L6.7614 6.82905Z" fill=""/>
<path d="M16 7.67133V2.69708L10.1968 6.24348L10.5348 6.45065C11.1286 6.16195 11.7954 6 12.5 6C13.9136 6 15.175 6.65183 16 7.67133Z" fill=""/>
<path d="M15.8339 10.2442C15.8339 11.4116 15.2567 12.2686 14.2467 12.2686C13.7439 12.2686 13.2455 12.0412 13.1274 11.6215H13.0837C12.9656 12.0369 12.5415 12.2642 12.0693 12.2642C11.2998 12.2642 10.8101 11.722 10.8101 10.8301V10.3011C10.8101 9.45721 11.2911 8.90194 12.0693 8.90194C12.6552 8.90194 12.9394 9.23423 13.0225 9.53154H13.0531V8.96315H13.9582V11.1537C13.9582 11.4247 14.1374 11.5734 14.3691 11.5734C14.6839 11.5734 15.0075 11.158 15.0075 10.183V10.065C15.0075 8.78826 14.0587 7.73891 12.524 7.73891H12.4847C10.9019 7.73891 9.84385 8.80575 9.84385 10.4628V10.6202C9.84385 12.4872 11.0812 13.2742 12.4147 13.2742H12.4585C12.9656 13.2742 13.3941 13.2042 13.639 13.0949V13.8251C13.4204 13.9257 12.9963 14 12.4016 14H12.3579C10.4385 14 9 12.8195 9 10.6465V10.4322C9 8.35978 10.421 7 12.4847 7H12.5197C14.6402 7 15.8339 8.42973 15.8339 10.0344V10.2442ZM11.7939 10.4541V10.6814C11.7939 11.2673 12.0212 11.4816 12.3754 11.4816C12.6858 11.4816 12.9394 11.3111 12.9394 10.7383V10.371C12.9394 9.85509 12.664 9.66271 12.3666 9.66271C12.0212 9.66271 11.7939 9.90756 11.7939 10.4541Z" fill=""/>
</svg>
